<svg width="21" height="21" viewBox="0 0 21 21" fill="none" xmlns="http://www.w3.org/2000/svg">
<path fill-rule="evenodd" clip-rule="evenodd" d="M2.625 0C1.92881 0 1.26113 0.276562 0.768845 0.768845C0.276562 1.26113 0 1.92881 0 2.625L0 18.375C0 19.0712 0.276562 19.7389 0.768845 20.2312C1.26113 20.7234 1.92881 21 2.625 21H18.375C19.0712 21 19.7389 20.7234 20.2312 20.2312C20.7234 19.7389 21 19.0712 21 18.375V2.625C21 1.92881 20.7234 1.26113 20.2312 0.768845C19.7389 0.276562 19.0712 0 18.375 0L2.625 0ZM15.7894 6.52312C15.6956 6.4297 15.584 6.35614 15.4612 6.30685C15.3383 6.25755 15.2068 6.23353 15.0745 6.23623C14.9422 6.23892 14.8117 6.26828 14.691 6.32253C14.5703 6.37679 14.4617 6.45483 14.3719 6.552L9.81356 12.3598L7.0665 9.61144C6.8799 9.43756 6.63308 9.3429 6.37806 9.3474C6.12304 9.3519 5.87973 9.4552 5.69937 9.63556C5.51902 9.81591 5.41571 10.0592 5.41121 10.3143C5.40671 10.5693 5.50137 10.8161 5.67525 11.0027L9.14812 14.4769C9.24168 14.5703 9.35309 14.6438 9.4757 14.6932C9.59832 14.7426 9.72962 14.7668 9.86179 14.7644C9.99396 14.7619 10.1243 14.7329 10.245 14.679C10.3657 14.6251 10.4743 14.5474 10.5643 14.4506L15.8038 7.90125C15.9824 7.71553 16.0811 7.46717 16.0787 7.20951C16.0762 6.95184 15.9728 6.70541 15.7907 6.52312H15.7894Z" fill="#1AB764"/>
</svg>
