<svg width="27" height="28" viewBox="0 0 27 28" fill="none" xmlns="http://www.w3.org/2000/svg">
<path d="M23.822 15.3708C23.8798 14.9333 23.9087 14.4813 23.9087 14C23.9087 13.5333 23.8798 13.0667 23.8075 12.6292L26.7422 10.325C26.8686 10.2199 26.955 10.0737 26.9867 9.91152C27.0183 9.74931 26.9932 9.58105 26.9157 9.43542L24.14 4.59375C24.0583 4.44728 23.9278 4.33472 23.7717 4.276C23.6156 4.21727 23.4439 4.21618 23.2871 4.27292L19.832 5.67292C19.1091 5.11875 18.3429 4.65209 17.49 4.30209L16.9696 0.597921C16.944 0.430986 16.8599 0.278848 16.7325 0.169136C16.6052 0.0594243 16.4431 -0.000585528 16.2757 4.30704e-06H10.7243C10.3774 4.30704e-06 10.1027 0.247921 10.0449 0.597921L9.52445 4.30209C8.67152 4.65209 7.89087 5.13334 7.1825 5.67292L3.72739 4.27292C3.40934 4.15625 3.04793 4.27292 2.87445 4.59375L0.113257 9.43542C-0.0602215 9.74167 -0.00239555 10.1208 0.286735 10.325L3.22141 12.6292C3.14913 13.0667 3.0913 13.5479 3.0913 14C3.0913 14.4521 3.12021 14.9333 3.1925 15.3708L0.257822 17.675C0.131362 17.7802 0.0449549 17.9263 0.0133224 18.0885C-0.0183101 18.2507 0.00678919 18.419 0.0843438 18.5646L2.86 23.4063C3.03347 23.7271 3.39489 23.8292 3.71293 23.7271L7.16804 22.3271C7.89087 22.8813 8.65706 23.3479 9.51 23.6979L10.0304 27.4021C10.1027 27.7521 10.3774 28 10.7243 28H16.2757C16.6226 28 16.9117 27.7521 16.9551 27.4021L17.4755 23.6979C18.3285 23.3479 19.1091 22.8813 19.8175 22.3271L23.2726 23.7271C23.5907 23.8438 23.9521 23.7271 24.1255 23.4063L26.9012 18.5646C27.0747 18.2438 27.0024 17.8792 26.7277 17.675L23.822 15.3708V15.3708ZM13.5 19.25C10.6376 19.25 8.29565 16.8875 8.29565 14C8.29565 11.1125 10.6376 8.75 13.5 8.75C16.3624 8.75 18.7043 11.1125 18.7043 14C18.7043 16.8875 16.3624 19.25 13.5 19.25Z" fill="#37393A"/>
</svg>
